<svg width="960" height="760" viewBox="0 0 960 760" fill="none" xmlns="http://www.w3.org/2000/svg">
  <rect width="960" height="760" fill="#08111F"/>
  <rect x="32" y="104" width="896" height="624" rx="34" fill="url(#paint0_linear)"/>
  <circle cx="810" cy="146" r="104" fill="#153D2B"/>
  <circle cx="810" cy="146" r="72" fill="#1B5B3D"/>
  <path d="M784 146h52" stroke="#9FF0C2" stroke-width="12" stroke-linecap="round"/>
  <path d="M810 120v52" stroke="#9FF0C2" stroke-width="12" stroke-linecap="round"/>
  <rect x="82" y="158" width="520" height="212" rx="28" fill="#0D1727"/>
  <rect x="112" y="192" width="236" height="18" rx="9" fill="#E5EEF8"/>
  <rect x="112" y="228" width="302" height="13" rx="6.5" fill="#64748B"/>
  <rect x="112" y="252" width="272" height="13" rx="6.5" fill="#475569"/>
  <rect x="112" y="305" width="460" height="25" rx="12.5" fill="#0F2E4F"/>
  <rect x="112" y="305" width="356" height="25" rx="12.5" fill="url(#paint1_linear)"/>
  <rect x="636" y="182" width="242" height="184" rx="28" fill="#0C1626"/>
  <rect x="664" y="212" width="94" height="94" rx="24" fill="#123B2A"/>
  <path d="M693 263l17 17 36-43" stroke="#9FF0C2" stroke-width="14" stroke-linecap="round" stroke-linejoin="round"/>
  <rect x="774" y="222" width="76" height="14" rx="7" fill="#E5EEF8"/>
  <rect x="774" y="250" width="58" height="12" rx="6" fill="#64748B"/>
  <rect x="774" y="274" width="66" height="12" rx="6" fill="#64748B"/>
  <rect x="82" y="404" width="796" height="270" rx="30" fill="#0C1626"/>
  <rect x="112" y="440" width="284" height="198" rx="24" fill="#101C30"/>
  <rect x="432" y="440" width="196" height="198" rx="24" fill="#101C30"/>
  <rect x="664" y="440" width="184" height="198" rx="24" fill="#101C30"/>
  <rect x="138" y="468" width="120" height="12" rx="6" fill="#94A3B8"/>
  <rect x="138" y="494" width="164" height="16" rx="8" fill="#F8FAFC"/>
  <rect x="138" y="525" width="206" height="12" rx="6" fill="#64748B"/>
  <rect x="138" y="548" width="186" height="12" rx="6" fill="#475569"/>
  <rect x="138" y="590" width="104" height="28" rx="14" fill="#123B2A"/>
  <rect x="138" y="590" width="104" height="28" rx="14" fill="url(#paint2_linear)"/>
  <rect x="460" y="470" width="140" height="18" rx="9" fill="#F8FAFC"/>
  <rect x="460" y="500" width="112" height="12" rx="6" fill="#64748B"/>
  <rect x="460" y="536" width="72" height="72" rx="24" fill="#0F2E4F"/>
  <path d="M484 577h68" stroke="#60A5FA" stroke-width="12" stroke-linecap="round"/>
  <path d="M484 553h44" stroke="#9CCBFF" stroke-width="12" stroke-linecap="round"/>
  <rect x="692" y="468" width="128" height="18" rx="9" fill="#F8FAFC"/>
  <rect x="692" y="500" width="100" height="12" rx="6" fill="#64748B"/>
  <rect x="692" y="534" width="66" height="66" rx="22" fill="#16354F"/>
  <path d="M718 584l20-20 18 12 30-34" stroke="#8FD3FF" stroke-width="12" stroke-linecap="round" stroke-linejoin="round"/>
  <defs>
    <linearGradient id="paint0_linear" x1="142" y1="130" x2="840" y2="744" gradientUnits="userSpaceOnUse">
      <stop stop-color="#0A1629"/>
      <stop offset="1" stop-color="#10243E"/>
    </linearGradient>
    <linearGradient id="paint1_linear" x1="112" y1="317.5" x2="468" y2="317.5" gradientUnits="userSpaceOnUse">
      <stop stop-color="#22C55E"/>
      <stop offset="1" stop-color="#38BDF8"/>
    </linearGradient>
    <linearGradient id="paint2_linear" x1="138" y1="604" x2="242" y2="604" gradientUnits="userSpaceOnUse">
      <stop stop-color="#22C55E"/>
      <stop offset="1" stop-color="#16A34A"/>
    </linearGradient>
  </defs>
</svg>
