<svg xmlns="http://www.w3.org/2000/svg" viewBox="0 0 1024 1024">
  <path
    fill="#98ddb1"
    d="M676.35 139.988c-84.302-84.302-291.577-84.302-375.879 0-64.967 64.967-52.592 297.764 14.695 375.879 61.873 71.154-44.858 112.145 29.39 186.393 64.966 64.967 223.516 64.967 288.483 0 73.474-73.474-30.937-121.426 29.39-186.393 64.966-69.607 78.888-310.912 13.921-375.879Z"
  />
  <path
    fill="#7fc99d"
    d="M612.157 393.668c5.414-5.414 5.414-14.695 0-20.882-5.414-5.414-14.695-5.414-20.882 0l-78.888 79.661V330.248c0-12.375-10.054-21.656-21.656-21.656-12.374 0-21.655 10.054-21.655 21.656v88.169l-116.786-67.287c-6.96-3.867-16.241-1.547-20.108 5.414-3.867 6.96-1.547 16.241 5.414 20.108l131.48 75.795v150.042l-37.898-37.897c-5.414-5.414-14.695-5.414-20.882 0-5.414 5.414-5.414 14.695 0 20.882l58.006 58.006v357.318h44.085V697.619l60.326-34.803c6.961-3.867 9.281-13.148 5.414-20.109-3.867-6.961-13.148-9.281-20.109-5.414l-45.631 26.296V493.438l99.77-99.77Z"
  />
</svg>
